<svg xmlns="http://www.w3.org/2000/svg" width="128" height="128" viewBox="0 0 128 128" role="img" aria-label="SmartRead AI Logo">
  <defs>
    <linearGradient id="g" x1="0" y1="0" x2="1" y2="1">
      <stop offset="0%" stop-color="#6366f1"/>
      <stop offset="100%" stop-color="#10b981"/>
    </linearGradient>
    <filter id="shadow" x="-20%" y="-20%" width="140%" height="140%">
      <feDropShadow dx="0" dy="4" stdDeviation="6" flood-color="#000" flood-opacity="0.15"/>
    </filter>
  </defs>
  <rect x="8" y="8" width="112" height="112" rx="24" fill="white"/>
  <rect x="8" y="8" width="112" height="112" rx="24" fill="url(#g)" opacity="0.08"/>
  <g filter="url(#shadow)">
    <circle cx="64" cy="64" r="44" fill="url(#g)"/>
    <!-- Stylized S made of two chat bubbles to hint reading + AI -->
    <path d="M86 50c0-8-9-14-22-14-11 0-20 5-24 12l9 5c3-5 9-8 15-8 7 0 12 3 12 6 0 4-4 6-12 7-17 3-25 9-25 19 0 9 10 15 22 15 11 0 20-5 24-12l-9-5c-3 5-9 8-15 8-7 0-12-3-12-6 0-4 4-6 12-7 17-3 25-9 25-20z" fill="#fff"/>
  </g>
  <!-- Tiny sparkle -->
  <g transform="translate(98 28) rotate(-15)">
    <rect x="-1" y="-6" width="2" height="12" rx="1" fill="#fff"/>
    <rect x="-6" y="-1" width="12" height="2" rx="1" fill="#fff"/>
  </g>
</svg>
