<?xml version="1.0" encoding="UTF-8"?>
<svg width="128" height="128" viewBox="0 0 128 128" fill="none" xmlns="http://www.w3.org/2000/svg">
    <!-- Background Circle -->
    <circle cx="64" cy="64" r="64" fill="url(#paint0_linear)"/>
    
    <!-- Book Pages -->
    <path d="M34 38C34 35.7909 35.7909 34 38 34H90C92.2091 34 94 35.7909 94 38V90C94 92.2091 92.2091 94 90 94H38C35.7909 94 34 92.2091 34 90V38Z" fill="white"/>
    
    <!-- AI Brain Symbol -->
    <path d="M64 48C55.1634 48 48 55.1634 48 64C48 72.8366 55.1634 80 64 80C72.8366 80 80 72.8366 80 64C80 55.1634 72.8366 48 64 48ZM61 56H67V60H61V56ZM69 72H59V68H61V64H59V60H63V68H65V72H69Z" fill="url(#paint1_linear)"/>
    
    <!-- Text Lines -->
    <rect x="44" y="44" width="40" height="2" rx="1" fill="#E8EAED" opacity="0.6"/>
    <rect x="44" y="82" width="40" height="2" rx="1" fill="#E8EAED" opacity="0.6"/>
    
    <!-- Gradient Definitions -->
    <defs>
        <linearGradient id="paint0_linear" x1="0" y1="0" x2="128" y2="128" gradientUnits="userSpaceOnUse">
            <stop stop-color="#4285F4"/>
            <stop offset="1" stop-color="#0F9D58"/>
        </linearGradient>
        <linearGradient id="paint1_linear" x1="48" y1="48" x2="80" y2="80" gradientUnits="userSpaceOnUse">
            <stop stop-color="#4285F4"/>
            <stop offset="1" stop-color="#0F9D58"/>
        </linearGradient>
    </defs>
</svg>